<?xml version="1.0" encoding="utf-8"?>
<svg width="238" height="56" viewBox="0 0 238 56" fill="none" xmlns="http://www.w3.org/2000/svg">
  <g clip-path="url(#clip0_2059_4806)">
    <path d="M35.0795 40.7481L24.9941 45.0827V44.6492C23.0494 45.1414 20.8952 45.425 18.8548 45.5163C9.37006 45.425 1.84168 40.5178 1.75406 34.6785V32.5107C4.86929 36.9889 11.2108 39.9894 18.8548 39.881C21.4408 39.9894 24.0863 39.5848 26.3092 39.0139L27.1862 36.8462C24.5497 37.6239 21.672 38.1649 18.8548 38.1468C9.37006 38.1649 1.84168 33.2577 1.75406 27.3099V25.5757C4.86929 29.7152 11.1973 32.7166 18.8548 32.5116C22.2997 32.7166 25.6688 32.0004 28.5013 30.7774L28.9403 28.6097C26.1728 30.053 22.5861 30.8912 18.8548 30.7774C9.37006 30.8912 1.84168 25.984 1.75406 19.9405V18.2063C4.86929 22.4425 11.2108 25.443 18.8548 25.5757C23.1994 25.443 27.3181 24.3076 30.6943 22.5409L31.1333 19.9396C28.0686 22.185 23.595 23.632 18.8548 23.8415C9.37006 23.632 1.84258 18.7239 1.75406 12.5711C1.84168 6.7191 9.37006 1.81187 18.8548 1.73419C24.509 1.81187 29.7604 3.77187 32.8874 6.93587L33.1917 7.43716L35.4028 7.44619L35.0795 6.93587C31.9697 2.75755 25.7501 0 18.8548 0C8.36026 0 0 5.71832 0 12.5711V35.112C0.368516 41.8013 8.53819 47.2495 18.8548 47.2495C25.6688 47.2495 31.7926 44.6004 35.0795 40.7481Z" fill="white"/>
    <path d="M30.9768 56L34.5174 41.1248L24.339 45.5L30.5351 19.6876H18.5854L21.6835 7H59.7418L56.6438 19.6876H44.2533L41.5978 26.6876L55.316 21L30.9768 56ZM37.1729 38.0619L35.4026 46.8124L50.006 24.9381L38.0572 30.1885L43.3682 17.9381H55.316L57.5289 8.75045H23.0113L20.7984 17.9381H32.7471L26.9936 42.4381L37.1729 38.0637V38.0619Z" fill="#FABF2C"/>
    <path d="M78.3056 15.3371C78.1985 16.8436 77.6508 18.0293 76.6625 18.8961C75.6743 19.7619 74.372 20.1944 72.7557 20.1944C70.9888 20.1944 69.597 19.5902 68.5847 18.3811C67.5715 17.1729 67.0645 15.5135 67.0645 13.4038V12.5474C67.0645 11.2013 67.2981 10.0146 67.7655 8.98842C68.2328 7.96314 68.9006 7.17518 69.7678 6.62736C70.636 6.0786 71.6446 5.80469 72.7945 5.80469C74.3849 5.80469 75.6669 6.23807 76.6394 7.10388C77.6111 7.96877 78.1726 9.18448 78.325 10.7491H75.484C75.4147 9.84486 75.1663 9.18917 74.7405 8.78205C74.3138 8.37494 73.6654 8.17138 72.7945 8.17138C71.8469 8.17138 71.1385 8.51565 70.6683 9.20511C70.1973 9.89458 69.9562 10.964 69.9433 12.4132V13.4714C69.9433 14.9844 70.1696 16.0904 70.6203 16.7892C71.0729 17.4881 71.7841 17.838 72.7566 17.838C73.634 17.838 74.2889 17.6344 74.7211 17.2273C75.1543 16.8202 75.4018 16.1898 75.4646 15.3371H78.3056ZM92.9761 13.3175C92.9761 14.6964 92.736 15.9047 92.2557 16.9431C91.7763 17.9824 91.0901 18.7835 90.1961 19.3482C89.3029 19.912 88.2787 20.1944 87.1232 20.1944C85.9807 20.1944 84.9611 19.9158 84.0643 19.3576C83.1684 18.7995 82.4729 18.0031 81.9806 16.9675C81.4883 15.9319 81.239 14.7405 81.2325 13.3935V12.7012C81.2325 11.3223 81.4773 10.1094 81.9668 9.06159C82.4563 8.01285 83.1471 7.20801 84.0412 6.64612C84.9343 6.08516 85.9558 5.80469 87.1048 5.80469C88.2537 5.80469 89.2752 6.0861 90.1684 6.64612C91.0615 7.20801 91.7533 8.01285 92.2418 9.06065C92.7313 10.1094 92.9761 11.3195 92.9761 12.6918V13.3175ZM90.0972 12.6825C90.0972 11.2135 89.8386 10.0981 89.3214 9.33456C88.8033 8.57193 88.0644 8.19015 87.1048 8.19015C86.1507 8.19015 85.4155 8.56724 84.8974 9.32049C84.3801 10.0737 84.1178 11.1778 84.1123 12.6346V13.3175C84.1123 14.7471 84.3709 15.8568 84.8881 16.6448C85.4053 17.4337 86.1507 17.8286 87.1232 17.8286C88.0764 17.8286 88.8088 17.4487 89.3214 16.6889C89.8322 15.929 90.0908 14.8212 90.0972 13.3654V12.6825ZM99.5383 20.0021H96.6973V5.99699H99.5383V20.0021ZM114.863 20.0021H112.021L106.49 10.7876V20.0021H103.649V5.99699H106.49L112.031 15.2311V5.99699H114.863V20.0021ZM128.927 8.3346H124.704V20.0021H121.863V8.3346H117.695V5.99699H128.927V8.3346ZM140.321 13.9329H134.866V17.6841H141.268V20.0021H132.024V5.99699H141.249V8.3346H134.866V11.6722H140.321V13.9329ZM147.253 17.6841H153.286V20.0021H144.412V5.99699H147.253V17.6841ZM164.689 13.9319H159.234V17.6841H165.636V20.0021H156.393V5.99699H165.617V8.3346H159.234V11.6722H164.689V13.9319ZM179.691 18.232C179.18 18.8539 178.456 19.337 177.522 19.6794C176.588 20.0227 175.553 20.1953 174.416 20.1953C173.222 20.1953 172.176 19.9298 171.276 19.4008C170.377 18.8717 169.682 18.1044 169.193 17.0969C168.703 16.0904 168.453 14.9075 168.44 13.5483V12.5952C168.44 11.1975 168.672 9.98745 169.136 8.96497C169.6 7.9425 170.27 7.15923 171.143 6.61798C172.018 6.07578 173.042 5.80469 174.217 5.80469C175.852 5.80469 177.131 6.20054 178.053 6.9932C178.975 7.78491 179.52 8.93777 179.691 10.4508H176.925C176.799 9.64881 176.52 9.06253 176.087 8.69012C175.655 8.31866 175.059 8.13292 174.302 8.13292C173.336 8.13292 172.601 8.50158 172.095 9.23888C171.59 9.97619 171.334 11.0728 171.328 12.5286V13.4226C171.328 14.8916 171.603 16.0003 172.152 16.7508C172.701 17.5012 173.507 17.8764 174.567 17.8764C175.634 17.8764 176.396 17.6457 176.849 17.1842V14.7696H174.264V12.644H179.691V18.232ZM188.574 14.8756H186.312V20.0021H183.47V5.99699H188.594C190.222 5.99699 191.479 6.36564 192.362 7.10388C193.247 7.84119 193.688 8.88242 193.688 10.2295C193.688 11.1853 193.485 11.9817 193.078 12.6196C192.671 13.2575 192.053 13.7659 191.226 14.1439L194.209 19.867V20.0021H191.16L188.574 14.8756ZM186.312 12.538H188.602C189.316 12.538 189.868 12.3532 190.26 11.9846C190.652 11.6159 190.847 11.1084 190.847 10.4602C190.847 9.79984 190.663 9.28016 190.293 8.90212C189.924 8.52409 189.358 8.3346 188.594 8.3346H186.311L186.312 12.538ZM205.111 17.1157H200.129L199.182 20.0021H196.161L201.294 5.99699H203.927L209.088 20.0021H206.067L205.111 17.1157ZM200.896 14.7799H204.343L202.61 9.53625L200.896 14.7799ZM214.695 15.0679V20.0021H211.854V5.99699H217.233C218.268 5.99699 219.179 6.18929 219.965 6.57483C220.752 6.95943 221.356 7.50537 221.779 8.21453C222.202 8.92276 222.413 9.72948 222.413 10.6338C222.413 12.0061 221.952 13.0877 221.026 13.8794C220.101 14.6721 218.821 15.0679 217.186 15.0679H214.695ZM214.695 12.7303H217.233C217.985 12.7303 218.557 12.5511 218.952 12.1919C219.347 11.8326 219.544 11.3195 219.544 10.6535C219.544 9.96681 219.345 9.41148 218.947 8.98842C218.55 8.5663 218 8.34774 217.299 8.3346H214.695V12.7303ZM237.064 20.0021H234.223V14.0004H228.684V20.0021H225.842V5.99699H228.684V11.6722H234.223V5.99699H237.064V20.0021Z" fill="#FABF2C"/>
    <text style="fill: rgb(255, 255, 255); font-family: Arial, sans-serif; font-size: 11.7px; font-weight: 700; white-space: pre;" x="77.706" y="38.275">R</text>
    <text style="fill: rgb(255, 255, 255); font-family: Arial, sans-serif; font-size: 11.7px; font-weight: 700; paint-order: stroke; white-space: pre;" x="68.034" y="38.393">B</text>
  </g>
  <defs>
    <clipPath id="clip0_2059_4806">
      <rect width="238" height="56" fill="white"/>
    </clipPath>
  </defs>
</svg>